<?xml version="1.0" encoding="utf-8"?>
<!-- Generator: Adobe Illustrator 23.0.1, SVG Export Plug-In . SVG Version: 6.00 Build 0)  -->
<svg version="1.1" id="Capa_1" xmlns="http://www.w3.org/2000/svg" xmlns:xlink="http://www.w3.org/1999/xlink" x="0px" y="0px"
	 viewBox="0 0 283.2 283.2" style="enable-background:new 0 0 283.2 283.2;" xml:space="preserve">
<style type="text/css">
	.st0{fill:#68F2D6;}
</style>
<g>
	<path class="st0" d="M254.8,140.7h-20c-4.1,0-7.5,3.4-7.5,7.5v91.2c0,4.8-3.9,8.8-8.8,8.8H43.8c-4.8,0-8.8-3.9-8.8-8.8V64.6
		c0-4.8,3.9-8.8,8.8-8.8h95.9c4.1,0,7.5-3.4,7.5-7.5v-20c0-4.1-3.4-7.5-7.5-7.5H43.8C19.6,20.9,0,40.5,0,64.6v174.8
		c0,24.1,19.6,43.8,43.8,43.8h174.8c24.1,0,43.8-19.6,43.8-43.8v-91.2C262.3,144.1,259,140.7,254.8,140.7z"/>
	<path class="st0" d="M275.7,0h-79.6c-4.1,0-7.5,3.4-7.5,7.5v20c0,4.1,3.4,7.5,7.5,7.5h27.3L120.7,137.7c-2.9,2.9-2.9,7.7,0,10.6
		l14.1,14.1c1.4,1.4,3.3,2.2,5.3,2.2c2,0,3.9-0.8,5.3-2.2L248.2,59.7v27.3c0,4.1,3.4,7.5,7.5,7.5h20c4.1,0,7.5-3.4,7.5-7.5V7.5
		C283.2,3.4,279.8,0,275.7,0z"/>
</g>
</svg>
